<svg width="96" height="96" viewBox="0 0 96 96" fill="none" xmlns="http://www.w3.org/2000/svg">
<path d="M47.9977 0V23.9996C34.7453 23.9996 23.9981 34.7468 23.9981 47.9992H0C0 21.4928 21.4822 0 47.9977 0Z" fill="#2F473F"/>
<path d="M47.9977 95.9985V71.9989C34.7453 71.9989 23.9981 61.2517 23.9981 47.9992H0C0 74.5041 21.4822 95.9985 47.9977 95.9985Z" fill="#008440"/>
<path d="M95.997 48.0008C95.997 74.5057 74.5148 96 47.9993 96V72.0004C61.2517 72.0004 71.9989 61.2532 71.9989 48.0008C71.9989 34.7483 61.2517 24.0011 47.9993 24.0011V0.00152588C74.5148 0.00152588 95.997 21.4959 95.997 48.0008Z" fill="#16C64F"/>
</svg>
