<svg fill="none" height="43" viewBox="0 0 202 43" width="202" xmlns="http://www.w3.org/2000/svg"><path d="m21.643 0v10.75c-5.9757 0-10.8215 4.8137-10.8215 10.75h-10.8215c0-11.87253 9.68643-21.5 21.643-21.5z" fill="#2f473f"/><path d="m21.643 43v-10.75c-5.9757 0-10.8215-4.8137-10.8215-10.75h-10.8215c0 11.8725 9.68643 21.5 21.643 21.5z" fill="#008440"/><path d="m43.2856 21.5c0 11.8725-9.6864 21.5-21.643 21.5v-10.75c5.9757 0 10.8215-4.8137 10.8215-10.75s-4.8458-10.75-10.8215-10.75v-10.75c11.9566 0 21.643 9.62747 21.643 21.5z" fill="#16c64f"/><g fill="#2f473f"><path d="m59.8842 11.3369c-2.7945 0-5.0647.9253-6.8157 2.8114-1.7153 1.886-2.5705 4.2929-2.5705 7.2914s.8552 5.3699 2.5705 7.2206c1.751 1.8153 4.0212 2.7406 6.8157 2.7406 2.7944 0 5.029-.9253 6.7036-2.776 1.7154-1.8507 2.5705-4.2575 2.5705-7.2206s-.8551-5.4053-2.5705-7.256c-1.6746-1.8861-3.9092-2.8114-6.7036-2.8114zm-.0357 17.2121c-3.8379 0-6.0317-2.7759-6.0317-7.1801s2.3465-7.1802 6.0317-7.1802c3.6853 0 5.9962 2.8114 5.9962 7.1448s-2.3109 7.2206-5.9962 7.2206z"/><path d="m76.0503 15.6347h-.2239v-3.9238h-3.2424v19.3207h3.2424v-8.9196c0-5.1474 2.1582-7.7363 6.5153-7.8122v-2.8872c-3.0897 0-5.2123 1.4057-6.2965 4.2221z"/><path d="m94.4107 27.2949h-5.141c-1.751 0-2.6061-.5562-2.6061-1.6636 0-1.0011.5599-1.5927 1.6746-1.7748.8551.1871 1.7154.2984 2.6418.2984 4.3214 0 7.1872-2.5535 7.1872-6.2953 0-1.8153-.5956-3.3322-1.7867-4.5154.4073-1.1478 1.8223-1.9265 3.614-1.9265v-2.66477c-2.6468 0-4.7694 1.33487-5.5482 3.40297-.9315-.5562-2.1582-.8141-3.6852-.8141-2.1582 0-3.9092.5916-5.2886 1.7748-1.3387 1.1479-2.0106 2.7002-2.0106 4.6267 0 2.2956.9315 4.035 2.7945 5.1828v.2225c-1.5271.445-2.5298 1.6636-2.5298 3.1856 0 1.1832.7839 2.2956 1.9342 2.6293v.2579c-1.7866.5562-2.942 1.9619-2.942 3.7772 0 2.9226 2.6824 4.7379 8.195 4.7379 5.8485 0 9.3502-1.9265 9.3502-5.6279 0-2.9984-2.1579-4.8137-5.8482-4.8137zm-3.5733-13.622c2.5298 0 4.1688 1.5523 4.1688 4.1108 0 2.5586-1.527 4.0705-4.1688 4.0705-2.6417 0-4.1738-1.517-4.1738-4.0705s1.6033-4.1108 4.1738-4.1108zm.224 21.6567c-3.614 0-5.4006-.9607-5.4006-2.8518 0-1.6636 1.0791-2.5181 3.2017-2.5181h5.253c1.9749 0 2.942.7382 2.942 2.2602 0 2.0731-2.0106 3.1097-5.9961 3.1097z"/><path d="m117.575 27.1434v-8.8084c0-4.4041-2.642-6.9981-7.523-6.9981-2.199 0-4.021.5562-5.477 1.6636-1.415 1.0719-2.199 2.5181-2.347 4.3334h3.131c.112-2.0732 1.863-3.4435 4.545-3.4435 2.978 0 4.469 1.4057 4.469 4.1817v1.4411h-5.176c-4.805 0-7.783 2.1844-7.783 6.2194 0 3.3676 2.606 5.6632 6.48 5.6632 3.018 0 5.589-1.4411 6.444-3.5547h.224c0 2.2603 1.079 3.403 3.278 3.403.56 0 1.12-.0758 1.639-.2224v-2.4777c-.189.0354-.448.0758-.708.0758-1.114 0-1.191-.7028-1.191-1.4815zm-3.202-4.2576c0 3.4435-2.346 5.8503-5.807 5.8503-2.347 0-3.838-1.259-3.838-3.3676 0-2.2197 1.562-3.5192 4.728-3.5192h4.917z"/><path d="m132.621 11.3369c-2.943 0-5.365 1.4816-6.557 3.9592h-.259v-3.5901h-3.243v19.3258h3.243v-10.1079c0-4.035 2.311-6.7352 5.736-6.7352 3.054 0 4.581 1.7749 4.581 5.2941v11.549h3.243v-11.8827c0-4.7733-2.53-7.8122-6.739-7.8122z"/><path d="m145.881 11.7109h-3.201v19.3258h3.201z"/><path d="m175.495 14.1886v-2.4777h-26.071v2.6648h10.689l-10.654 14.2541v2.4069h26.184v-2.6648h-10.801l10.653-14.1782zm-14.293 14.1783h-7.905l10.511-13.9912h7.849l-10.46 13.9912z"/><path d="m191.544 25.2216c-.484 2.1085-2.571 3.5546-5.401 3.5546-3.726 0-6.031-2.4776-5.996-6.7351h14.375c.076-.5563.112-1.2237.112-1.9973 0-5.2941-3.202-8.6971-8.603-8.6971-2.759 0-4.993.9253-6.668 2.776-1.674 1.8152-2.494 4.2575-2.494 7.2914 0 3.0338.855 5.4761 2.535 7.2914 1.675 1.8152 3.909 2.7001 6.668 2.7001 2.311 0 4.245-.5562 5.808-1.704 1.603-1.1478 2.57-2.6294 2.906-4.48zm-5.548-11.2557c3.461 0 5.436 2.0378 5.436 5.6986h-11.249c.112-3.4434 2.423-5.6986 5.808-5.6986z"/><path d="m145.881 5.26904h-3.201v3.18556h3.201z"/></g></svg>